<svg version="1.1" id="Layer_1" xmlns="http://www.w3.org/2000/svg" xmlns:xlink="http://www.w3.org/1999/xlink" x="0px" y="0px"
	 width="100%" viewBox="0 0 992 816" enable-background="new 0 0 992 816" xml:space="preserve">
<path fill="#000000" opacity="1.000000" stroke="none" 
	d="
M321.895935,525.902832 
	C311.069336,529.515930 300.072571,531.290283 289.685852,536.404724 
	C294.776306,540.906982 300.420227,544.582275 306.036285,548.237671 
	C335.585114,567.470520 365.291901,586.462158 394.751709,605.829773 
	C412.398529,617.431274 429.386505,630.053101 447.225677,641.338989 
	C468.593750,654.857483 488.859558,670.008606 510.475067,683.147522 
	C520.830627,689.442017 530.636230,696.635010 540.896301,703.094849 
	C549.729431,708.656250 559.538330,710.237366 570.316101,709.367981 
	C569.022644,704.028748 566.064880,701.355225 561.478760,700.382385 
	C557.924805,699.628418 554.870972,698.074707 552.648438,695.150574 
	C550.301208,692.062256 550.388916,689.103455 553.987976,687.201416 
	C560.289001,683.871216 567.263000,682.112305 573.572327,678.603027 
	C577.573364,676.377686 582.007385,678.528992 584.633606,682.112183 
	C588.616760,687.546692 595.982056,688.285767 599.854187,693.893494 
	C601.183960,695.819336 603.821045,694.541016 605.813232,693.452881 
	C611.363281,690.421448 616.755066,687.598145 623.682861,688.763733 
	C629.449158,689.733826 634.049927,684.125183 635.056335,677.836670 
	C636.945923,666.029846 631.989685,658.297058 621.741577,653.300354 
	C618.135010,651.541931 616.242188,648.764709 617.127258,644.853760 
	C618.282043,639.750244 616.679504,635.166443 614.634705,630.856628 
	C612.188416,625.700500 610.797180,620.226807 608.817383,614.940002 
	C606.831299,609.636230 606.226929,604.119751 608.370361,598.796143 
	C611.341248,591.417847 609.858765,584.712646 605.972961,578.298340 
	C603.590271,574.365234 602.186340,570.224548 601.565674,565.678589 
	C601.157532,562.689697 600.836731,560.010864 603.953674,558.283447 
	C604.096008,558.204529 604.299438,558.082397 604.318604,557.956665 
	C605.892822,547.640869 617.258423,549.909485 622.332458,544.037659 
	C622.887695,543.395081 624.567078,543.445801 625.666809,543.597351 
	C632.370300,544.520569 638.678040,542.711182 644.574280,540.084412 
	C647.911255,538.597778 650.350586,535.401306 654.487183,534.908997 
	C656.171570,534.708557 656.022888,532.154907 655.897278,530.509583 
	C655.468689,524.897705 658.622559,522.282227 663.577209,521.170593 
	C665.525085,520.733582 667.514099,520.182312 669.483032,520.187500 
	C678.469604,520.211182 686.241272,516.776489 693.553223,512.000671 
	C696.904541,509.811829 699.257446,508.421204 702.190552,513.347717 
	C706.694702,520.913025 715.194458,520.795959 720.717651,513.958191 
	C722.496948,511.755371 724.399353,509.689423 725.461243,506.972260 
	C726.685303,503.840485 727.074951,501.437134 723.129395,499.714691 
	C719.446472,498.106903 721.760681,495.538239 723.118408,493.604065 
	C724.811829,491.191803 727.429077,489.531616 728.192505,486.336487 
	C729.010559,482.912933 728.140198,481.181458 724.482178,481.145538 
	C718.316284,481.085022 712.164551,480.992584 706.119873,479.428040 
	C703.475159,478.743530 701.213379,477.787201 699.855774,475.508636 
	C700.416321,474.191498 701.371826,474.054443 702.105835,474.267303 
	C709.833008,476.508423 716.855591,472.987793 724.141113,471.657684 
	C727.553040,471.034698 728.509277,468.891022 726.439514,466.324310 
	C723.364136,462.510895 724.615540,459.865509 728.132202,457.735809 
	C731.142700,455.912659 736.321777,457.950317 737.859375,461.333466 
	C738.257996,462.210510 738.410034,463.199646 738.800903,464.581055 
	C743.880310,461.452820 746.435181,464.828033 748.791504,468.726746 
	C751.465271,466.809113 754.241333,466.420349 756.869202,465.592743 
	C761.322205,464.190369 766.115540,463.209625 769.103210,458.621277 
	C771.163879,455.456573 774.794250,454.694092 778.519531,455.906738 
	C782.302185,457.138092 785.859619,456.601013 788.967651,454.283142 
	C797.808105,447.690247 806.863586,449.358063 815.697021,453.817810 
	C829.811096,460.943604 843.772522,468.377808 857.703064,475.859344 
	C871.631592,483.339783 885.911011,490.307709 899.193787,498.816132 
	C918.186035,510.981781 939.118408,519.297424 958.552979,530.470703 
	C965.594543,534.519043 972.969604,538.002869 979.662903,542.739990 
	C984.817017,546.387695 987.071960,551.431213 987.590637,557.087646 
	C989.523132,578.162842 988.689575,599.221924 986.522461,620.260498 
	C985.810669,627.171143 986.288818,634.103027 983.694885,640.881348 
	C979.191528,652.649597 969.859924,658.605469 959.154724,663.575012 
	C949.579163,668.020142 940.669373,667.273560 932.348450,661.196838 
	C926.954163,657.257446 921.868103,656.640259 915.626404,659.233887 
	C903.324036,664.346130 890.305969,666.850769 877.309631,669.825867 
	C847.198486,676.718933 817.105774,684.000305 788.150940,695.260315 
	C766.792236,703.566345 744.596863,709.686462 723.659302,719.122620 
	C705.762512,727.188416 688.021973,735.605286 670.303833,744.058655 
	C667.652466,745.323608 665.550537,746.215942 663.813171,743.845825 
	C654.765381,747.319031 647.092163,752.482361 639.163025,757.171570 
	C635.299377,759.456360 631.733582,762.245850 627.863708,764.518616 
	C621.990784,767.967712 619.658630,773.658875 618.617615,779.749634 
	C618.037781,783.142273 617.540527,786.627075 616.805481,789.967712 
	C614.467346,800.594299 606.686462,806.725769 597.156372,809.967651 
	C585.618713,813.892517 573.581360,815.393677 561.265564,813.398743 
	C556.643677,812.649963 552.630554,810.740784 548.942749,808.302490 
	C532.999329,797.760986 516.969177,787.319946 501.451447,776.172913 
	C480.668457,761.243774 459.287476,747.207397 438.224091,732.699463 
	C416.047638,717.424988 393.874420,702.145874 371.678619,686.899536 
	C351.541016,673.066956 331.374359,659.276672 311.221680,645.466003 
	C295.998566,635.033569 280.337463,625.172119 265.712402,613.959473 
	C256.217804,606.680176 245.864136,600.609436 236.903397,592.555359 
	C229.296906,585.718567 225.115891,578.189331 226.406479,567.654663 
	C227.171631,561.409058 226.601624,555.004761 226.717850,548.673401 
	C226.839142,542.066345 226.601959,535.580933 229.311707,529.100952 
	C232.227737,522.127625 230.539536,514.271484 231.461227,506.826660 
	C232.768356,496.268463 233.021530,485.583832 233.949707,474.972870 
	C234.369339,470.175507 232.411087,468.045929 227.750015,468.277863 
	C219.897949,468.668488 215.245483,464.509674 210.725876,458.399414 
	C199.843979,443.687531 190.081024,428.224365 179.932205,413.052917 
	C167.099243,393.868927 154.639832,374.409637 141.710266,355.286377 
	C128.398483,335.597870 115.507919,315.630371 102.086411,296.008850 
	C89.425125,277.498688 77.447372,258.492432 64.744202,239.992935 
	C55.137756,226.003189 46.528873,211.370163 36.659218,197.545456 
	C29.908192,188.089111 24.019775,178.020050 17.647825,168.289001 
	C12.297405,160.118027 12.026471,151.440399 14.823596,142.440704 
	C17.233835,134.685791 19.681246,126.938797 22.341568,119.267838 
	C22.997274,117.377136 23.239584,114.946053 25.685551,113.946411 
	C26.038952,114.346024 26.635094,114.706322 26.633219,115.063484 
	C26.572481,126.625854 34.064323,134.766083 39.848354,143.531479 
	C53.408749,164.081543 67.398285,184.347946 81.143257,204.776825 
	C103.056564,237.346130 124.842598,270.001251 146.813843,302.531342 
	C165.154694,329.686340 183.623703,356.755402 202.166779,383.772766 
	C207.676117,391.799896 213.618454,399.530304 219.385300,407.379883 
	C220.558701,408.977051 221.782623,410.558899 223.613129,411.309235 
	C224.092056,411.107513 224.605637,411.040527 224.658539,410.847382 
	C226.905441,402.642303 231.578094,395.934174 237.041733,389.539001 
	C239.567413,386.582703 241.380295,382.932098 241.181854,378.569733 
	C241.036423,375.372589 244.134705,374.871155 246.372528,373.977478 
	C254.131378,370.878967 262.378143,369.425873 270.342346,367.020996 
	C283.404510,363.076782 296.583282,359.510468 309.401489,354.764954 
	C314.454590,352.894226 319.205566,352.128204 324.452667,355.894623 
	C328.200012,358.584442 333.558624,357.324829 337.932373,355.419983 
	C343.595520,352.953552 349.519073,353.516754 355.145172,354.370605 
	C359.400330,355.016388 361.737518,359.652496 364.611908,362.714935 
	C373.270905,371.940491 383.270599,376.864899 396.156403,374.459198 
	C398.902069,373.946564 401.689972,373.242798 405.601532,374.991333 
	C398.002289,380.509857 389.110046,381.106201 381.828979,385.353516 
	C394.917969,383.007080 407.445099,378.610199 420.046997,374.594330 
	C432.841095,370.517242 445.820770,367.170135 458.744659,363.580688 
	C471.719940,359.976990 484.583038,355.932709 497.375488,351.717712 
	C510.188660,347.495880 523.210022,344.033813 536.150024,340.267059 
	C549.083862,336.502075 561.936279,332.437988 574.733337,328.228088 
	C587.200134,324.126831 599.019897,317.774567 612.425354,317.053528 
	C607.632935,322.463440 600.768250,321.967255 594.386353,323.876038 
	C595.576965,327.586670 597.179199,330.853729 600.742737,331.744354 
	C614.974060,335.301117 621.710205,345.290955 624.994019,358.661560 
	C626.564270,365.055084 625.664368,371.618439 626.816833,378.019226 
	C626.964111,378.837250 626.512878,379.640778 625.118713,380.059540 
	C622.689331,375.334198 621.841797,370.151764 621.865601,364.944580 
	C621.890503,359.511353 620.860229,354.726074 616.804382,350.865723 
	C615.706299,349.820557 615.171448,348.456177 614.663757,346.995941 
	C611.525452,337.969482 603.278809,332.125763 592.128601,335.613617 
	C557.677795,346.390137 523.169006,356.980957 488.686737,367.656799 
	C479.164062,370.605072 469.366486,372.662018 460.188629,376.742279 
	C457.039520,378.142273 454.342010,376.290527 451.985565,374.354248 
	C450.566925,373.188507 449.403229,372.486176 447.590820,373.661316 
	C434.499908,382.149292 419.291840,385.082703 404.772644,389.788208 
	C387.380493,395.424866 369.902863,400.797516 352.468201,406.303314 
	C333.748749,412.214844 315.020050,418.097870 296.330688,424.103149 
	C290.756012,425.894379 285.300079,428.054962 279.763275,430.704437 
	C285.042145,431.202515 288.315826,434.774963 292.138123,437.358185 
	C293.879913,438.535309 295.666718,438.761932 297.814911,438.212982 
	C311.377136,434.747162 324.567352,430.062622 337.719666,425.404541 
	C360.615265,417.295746 383.750763,409.991028 406.919769,402.737335 
	C419.570953,398.776550 432.194061,395.839722 445.576996,396.979218 
	C449.555786,397.317993 453.446228,395.755829 457.319122,394.760284 
	C459.835815,394.113373 462.783051,393.652008 463.948914,396.394470 
	C465.089905,399.078552 463.401917,401.815369 461.013245,403.151001 
	C457.106873,405.335327 452.991791,407.256317 448.775482,408.756378 
	C434.686890,413.768890 420.533051,418.600952 406.364471,423.384369 
	C400.882446,425.235107 395.349945,426.998322 389.736298,428.377747 
	C385.312561,429.464722 381.297638,431.510803 377.279297,433.375916 
	C369.642120,436.920837 360.825775,437.248962 353.855713,442.818268 
	C350.938873,445.148926 346.596466,446.277161 342.757538,446.732483 
	C337.324585,447.376770 332.632538,449.362793 328.888062,452.956299 
	C323.809296,457.830353 318.129059,460.682922 311.092010,460.656464 
	C306.255707,460.638306 305.033905,463.158447 305.115173,467.663147 
	C305.357513,481.101440 305.696991,478.620361 315.572601,474.985229 
	C333.132538,468.521484 351.406708,464.779541 369.273987,459.530853 
	C374.987610,457.852417 381.025848,457.038055 386.976532,456.488098 
	C391.270111,456.091217 395.237823,457.152710 396.319794,462.592163 
	C396.879913,465.407806 398.548767,467.254761 402.136108,466.050720 
	C423.087067,459.018982 444.678650,453.889557 465.110657,445.363190 
	C470.911499,442.942444 475.068268,437.911011 478.161133,432.261444 
	C479.255432,430.262543 480.605652,428.403809 481.840057,426.479492 
	C484.158539,427.302917 484.054077,429.098236 484.106354,430.682098 
	C484.319824,437.146393 482.913208,443.638184 484.547668,450.090027 
	C484.908997,451.516174 484.049438,452.663757 482.706604,453.298828 
	C481.513000,453.863312 480.298981,453.703491 479.542755,452.658173 
	C476.692719,448.718445 472.615509,449.414856 469.060455,450.461792 
	C444.020508,457.835968 418.942017,465.126556 394.546112,474.482666 
	C391.207001,475.763214 388.055878,477.899017 385.276886,480.194702 
	C380.359344,484.257050 374.537537,486.060974 368.648407,487.829926 
	C366.679626,488.421326 364.375854,488.994537 364.150543,491.210724 
	C363.899017,493.685028 366.304871,494.692505 368.159241,495.770203 
	C368.727936,496.100708 369.382935,496.305542 370.020844,496.490448 
	C373.635681,497.538361 374.072113,499.162781 371.586029,502.157959 
	C368.134247,506.316528 364.004700,509.468811 358.719330,510.139832 
	C349.068542,511.365051 341.593842,517.257019 333.312347,521.358154 
	C329.703766,523.145264 326.246063,525.027588 321.895935,525.902832 
M848.192871,650.996826 
	C833.966125,654.555420 821.046387,661.323486 807.744690,667.163086 
	C818.586548,664.616333 828.752563,660.216125 839.007202,656.112000 
	C842.446045,654.735718 846.477905,654.251160 849.807251,650.932556 
	C855.588623,649.558838 861.239197,647.845093 866.498718,645.114319 
	C866.347900,644.718323 866.197083,644.322327 866.046204,643.926331 
	C860.358276,646.274109 854.670349,648.621948 848.192871,650.996826 
M694.471863,713.931641 
	C730.556641,699.011047 767.197876,685.429626 802.766602,669.222778 
	C796.817444,670.020447 791.527527,674.326416 785.035583,672.072510 
	C787.339539,670.012451 789.710632,668.228760 792.366394,667.138977 
	C813.425842,658.497009 834.733643,650.482422 855.820618,641.895813 
	C877.823914,632.936157 900.060242,624.541382 921.929321,615.242065 
	C924.095825,614.320740 926.807739,613.691467 927.286072,610.388794 
	C925.244263,608.805054 923.045410,607.330139 921.114807,605.562256 
	C912.438354,597.617188 905.443115,596.553284 894.944702,601.596619 
	C893.160767,602.453613 891.138855,602.800537 889.299744,603.559631 
	C883.287964,606.040710 876.336914,605.950439 870.768677,608.942200 
	C863.455078,612.871887 855.574280,615.245422 848.118042,618.719910 
	C839.271545,622.842224 829.647522,625.253967 820.641846,629.188110 
	C813.045044,632.506775 805.430542,635.815002 797.675537,638.733765 
	C789.596191,641.774475 781.260071,644.132385 773.176636,647.163452 
	C757.783142,652.935425 742.511597,659.031921 727.142944,664.871460 
	C721.560364,666.992554 715.680115,668.386047 710.220154,670.764587 
	C690.678894,679.277527 670.550903,686.279480 650.662476,693.869995 
	C635.289062,699.737244 619.732056,705.161133 604.502869,711.407471 
	C595.229187,715.211182 585.378052,717.184387 575.816467,719.499084 
	C566.166077,721.835266 555.594849,720.871277 546.255615,715.573303 
	C545.012390,714.867981 543.599609,714.078918 541.650391,715.087341 
	C540.954529,721.109497 540.643188,727.431824 539.345764,733.544861 
	C538.667725,736.739563 539.648010,737.782837 542.144409,738.672852 
	C562.744141,746.016418 583.271301,748.278625 604.335693,739.820801 
	C615.114868,735.492676 626.253845,732.012329 637.054260,727.651794 
	C639.240051,726.769287 641.849854,725.019653 644.300415,727.397949 
	C643.878479,729.525146 642.305176,729.735413 640.855835,730.027161 
	C635.259583,731.153687 630.101685,733.408936 624.940369,735.784302 
	C617.707764,739.112915 610.292053,742.040894 602.995667,745.234009 
	C590.290466,750.794128 576.986145,751.271301 563.454163,750.139099 
	C561.352905,749.963257 558.876343,749.581421 557.763855,752.104370 
	C556.638855,754.655640 558.030273,756.797852 559.854187,758.284790 
	C564.446716,762.028442 566.891968,766.890259 568.686584,772.424133 
	C571.084595,779.818787 574.403015,780.367065 579.803650,774.732605 
	C583.046448,771.349365 585.771667,771.805054 587.803772,776.145874 
	C589.339294,779.425781 589.035950,782.963928 589.156433,786.459656 
	C589.609253,799.594543 591.938110,800.937500 604.226074,795.304443 
	C604.982727,794.957581 605.698303,794.514648 606.468933,794.206177 
	C610.291199,792.676331 612.341064,789.621765 612.604614,785.768921 
	C613.467102,773.159912 617.629089,760.939026 616.942810,748.161133 
	C616.776672,745.067505 618.322876,743.129211 621.147095,742.110352 
	C645.541809,733.309143 669.745850,724.011780 694.471863,713.931641 
M75.508881,238.962128 
	C80.285507,243.881042 81.532600,251.824081 88.874809,254.564377 
	C89.292252,254.720169 89.852257,255.240723 89.868820,255.612747 
	C90.153999,262.020264 94.844383,266.379517 97.667000,271.487854 
	C100.352051,276.347260 102.935257,282.241455 108.923904,284.061005 
	C114.858032,285.864014 118.103035,289.434479 119.658020,295.261932 
	C121.243446,301.203461 120.626389,308.385071 127.951874,311.468658 
	C128.447174,311.677155 128.747894,312.527710 128.986771,313.139160 
	C133.850327,325.588623 145.372086,327.559540 156.578140,330.441650 
	C113.026024,263.502899 68.787163,197.157562 23.847383,131.639786 
	C15.527578,138.518097 20.942179,147.023560 21.245289,154.991684 
	C21.281467,155.942764 22.210464,156.070145 23.031462,156.373795 
	C26.283640,157.576569 32.781811,166.942276 32.353745,170.425980 
	C31.831356,174.677307 33.338795,177.961990 36.118999,180.788742 
	C38.963039,183.680405 40.746193,187.231613 42.947468,190.544037 
	C47.263138,197.038162 51.294170,203.709534 55.941711,210.010071 
	C62.710575,219.186401 68.837540,228.836258 75.508881,238.962128 
M277.142944,515.603088 
	C283.363770,513.762939 289.600037,511.973022 295.801270,510.069061 
	C302.414886,508.038452 303.832367,506.083466 303.500549,499.193695 
	C302.981476,488.417419 302.347168,477.646606 301.731689,466.875183 
	C301.658905,465.600952 301.978088,464.153503 300.087616,462.906219 
	C294.799194,468.858429 287.875763,471.036743 279.826935,471.341522 
	C273.903748,471.565857 272.256317,474.177490 271.997955,480.287537 
	C271.836334,484.109161 271.453766,487.963409 271.766266,491.753906 
	C272.325714,498.539551 270.190582,505.311554 272.018127,512.115662 
	C272.699951,514.654175 273.659637,516.007751 277.142944,515.603088 
M280.793457,540.645447 
	C273.856842,535.841492 267.084290,530.760620 259.396149,527.170532 
	C254.681580,524.968994 248.205017,526.658264 245.764725,530.506287 
	C243.162155,534.610168 244.451187,538.577942 249.513840,542.911377 
	C255.346100,547.903503 262.694183,550.571472 268.518677,555.604675 
	C271.515076,558.194092 274.806946,560.566284 278.282288,562.452576 
	C287.388062,567.394897 287.461334,567.268921 292.114624,557.821838 
	C292.809235,556.411621 294.763214,554.446899 292.957977,553.463928 
	C287.625549,550.560242 285.952057,544.473572 280.793457,540.645447 
M286.372375,602.829773 
	C289.772461,604.158386 290.517944,602.201538 290.540466,599.426025 
	C290.594543,592.769470 290.533661,586.110596 290.696045,579.456970 
	C290.786133,575.763550 289.156097,573.542053 285.805267,572.230469 
	C281.582306,570.577454 278.053986,567.790588 274.409973,565.149109 
	C268.813141,561.092041 263.007355,557.323242 256.797150,553.096497 
	C255.599411,562.403137 257.327148,570.807678 257.284515,579.238037 
	C257.251099,585.845337 257.821838,586.471985 264.504456,585.991516 
	C269.475922,585.634033 272.667603,587.271912 275.024170,591.688354 
	C277.477692,596.286377 281.026947,600.064087 286.372375,602.829773 
M948.968445,658.327209 
	C951.721497,655.590454 952.860168,652.325073 952.765686,648.410217 
	C952.533264,638.776672 952.521851,629.138000 952.387329,619.501831 
	C952.366150,617.992188 952.252258,616.178589 950.395203,615.962036 
	C948.539001,615.745605 946.619568,616.451599 945.879272,618.376587 
	C945.359985,619.726929 945.369019,621.298523 945.244812,622.779846 
	C944.346313,633.494873 946.141113,644.316406 943.663635,655.011353 
	C943.022766,657.777588 944.573608,660.430054 948.968445,658.327209 
M269.571930,438.151245 
	C264.474792,440.610321 258.162598,439.944061 253.514343,443.906860 
	C255.026672,447.069489 257.220642,448.158936 260.137421,449.081024 
	C265.011505,450.621918 267.893158,446.800354 271.721252,445.690399 
	C277.023132,444.153076 282.505310,442.766632 287.274109,439.254700 
	C284.981201,434.652191 281.322968,434.624207 277.433563,435.598480 
	C275.026367,436.201447 272.705963,437.150635 269.571930,438.151245 
M261.892944,489.951538 
	C260.234344,496.454041 261.890961,503.202698 260.405609,509.734924 
	C259.962585,511.683289 259.845642,514.261902 262.517792,514.447021 
	C265.389893,514.645874 265.951385,512.016968 265.630951,509.818726 
	C264.784790,504.014069 265.758362,498.254913 265.678345,492.478607 
	C265.660248,491.173645 265.638428,489.700592 265.054993,488.604919 
	C263.620239,485.910553 262.681946,487.143921 261.892944,489.951538 
M925.452087,629.489990 
	C924.840027,627.887634 923.783264,626.954407 922.004761,627.540466 
	C920.498901,628.036743 920.163452,629.403259 920.184509,630.773315 
	C920.251160,635.106445 919.899414,639.383240 919.219604,643.673523 
	C918.865051,645.910950 919.345642,648.267090 922.429993,649.988159 
	C926.359314,643.673157 925.747375,636.936584 925.452087,629.489990 
M911.629578,639.639221 
	C912.060730,641.531189 913.394409,642.400574 914.798096,641.073303 
	C917.180359,638.820679 916.829773,635.648438 916.550354,632.684937 
	C916.448059,631.600159 915.470642,630.686768 914.467407,631.123901 
	C911.944092,632.223267 912.183167,634.845642 911.729736,637.029968 
	C911.598633,637.661316 911.704346,638.341858 911.629578,639.639221 
M241.101501,563.870300 
	C241.245438,566.269043 240.607788,568.908264 243.280792,571.501648 
	C243.846252,567.295898 244.476471,564.029724 242.942062,560.869202 
	C241.219513,561.063660 241.325974,562.176636 241.101501,563.870300 
M239.173080,431.504333 
	C241.593399,431.278595 244.238815,431.537689 246.058945,428.153595 
	C243.479095,428.304596 241.525177,428.231720 239.655197,428.593201 
	C238.376236,428.840454 237.000000,429.610107 239.173080,431.504333 
M363.307739,391.772675 
	C365.060516,391.287140 366.813293,390.801605 368.566071,390.316101 
	C368.427124,389.905060 368.288177,389.494019 368.149231,389.083008 
	C363.276031,390.665955 358.402863,392.248932 353.529663,393.831909 
	C356.922211,394.535004 359.634155,392.850342 363.307739,391.772675 
M285.739655,416.232697 
	C287.230957,415.686371 289.086151,416.114655 290.621674,414.074432 
	C286.098999,415.025116 282.021057,415.570160 277.860107,418.237244 
	C280.911316,418.329559 282.983856,417.406403 285.739655,416.232697 
z"/>
<path fill="#000000" opacity="1.000000" stroke="none" 
	d="
M332.674377,75.562767 
	C360.742798,68.439583 388.418823,61.423798 416.423218,54.324783 
	C415.125671,51.456123 411.552551,51.236317 411.081268,48.334812 
	C416.257172,43.932285 424.431274,45.412594 426.690674,51.604218 
	C432.446564,67.377609 444.565765,78.627312 454.132629,91.735710 
	C460.426086,100.358902 468.738953,106.939766 475.119354,115.514648 
	C480.759766,123.094994 488.360992,129.432678 494.366089,136.905380 
	C508.941528,155.043015 523.863098,172.898193 538.425476,191.048309 
	C550.487610,206.082108 562.466064,221.194717 574.681458,236.110687 
	C580.471619,243.181000 586.210388,250.294037 591.911255,257.436523 
	C593.652954,259.618713 594.488586,261.850433 591.183777,263.556641 
	C590.466309,263.927094 589.480774,264.469391 589.315735,265.111694 
	C587.725525,271.299011 582.173523,271.394409 577.573242,272.749512 
	C549.319824,281.072174 521.041687,289.311157 492.763672,297.550049 
	C470.890076,303.922974 448.831085,309.722565 427.180115,316.776367 
	C410.273346,322.284485 393.091125,326.834595 376.195587,332.411041 
	C358.870239,338.129364 341.115295,342.718048 323.675415,348.181213 
	C306.405365,353.591187 288.889130,358.169373 271.792969,364.212128 
	C261.657257,367.794617 251.100739,370.297607 240.753098,373.358398 
	C235.987762,374.767944 232.143539,371.839966 229.415375,367.885742 
	C217.322937,350.358856 205.300934,332.783356 193.182968,315.274200 
	C178.335342,293.820923 163.306854,272.492126 148.559631,250.970337 
	C132.294434,227.233276 116.303902,203.308243 100.105804,179.524933 
	C91.891167,167.463577 83.559753,155.479767 75.135002,143.564209 
	C69.696854,135.872772 70.988350,131.510269 80.088631,129.224518 
	C103.801277,123.268524 127.577011,117.563957 151.295425,111.630539 
	C179.026337,104.693344 206.653687,97.328461 234.457245,90.699745 
	C255.974899,85.569664 277.287781,79.553108 299.037354,75.412231 
	C305.513092,74.179337 311.726135,71.574165 318.616516,72.185715 
	C280.329773,84.602119 241.715439,95.875023 202.695694,105.863297 
	C210.810364,104.963371 218.863480,103.878708 226.660934,101.328682 
	C237.431183,97.806473 248.693817,96.358765 259.654968,93.624039 
	C283.851013,87.587311 308.071503,81.648766 332.674377,75.562767 
M112.479462,174.074600 
	C117.743309,181.744644 123.023453,189.403549 128.267914,197.086823 
	C143.352692,219.186401 158.431732,241.289886 173.495789,263.403595 
	C182.289627,276.312775 191.034637,289.255280 199.831207,302.162598 
	C206.583008,312.069611 213.488754,321.873718 220.108612,331.867645 
	C222.986465,336.212280 226.025177,338.266907 231.643295,336.794556 
	C242.103622,334.053253 252.371521,330.704102 262.765228,327.772797 
	C297.955170,317.848358 333.201355,308.123474 368.398621,298.224762 
	C396.898621,290.209595 425.359467,282.055267 453.836914,273.959900 
	C482.795013,265.727905 511.753082,257.495789 540.708618,249.254730 
	C544.686218,248.122650 545.182129,246.287125 542.352783,242.871094 
	C532.073242,230.459900 521.829102,218.023697 511.714844,205.473511 
	C491.466919,180.349014 470.766083,155.590073 450.352509,130.598328 
	C437.306213,114.626137 424.388458,98.547966 411.532074,82.422417 
	C408.689362,78.856873 406.133575,77.180527 401.050018,78.701195 
	C388.018799,82.599266 374.733185,85.650169 361.538818,88.998634 
	C345.107971,93.168480 328.640961,97.198326 312.236542,101.469131 
	C292.944672,106.491676 273.834015,112.290207 254.398300,116.654762 
	C238.982361,120.116615 223.889664,124.735970 208.463043,128.147507 
	C188.012985,132.669968 167.788132,138.207703 147.454315,143.260101 
	C133.893005,146.629700 120.306160,149.890076 107.047989,154.369370 
	C103.257462,155.650009 101.769516,157.546036 104.267715,161.312027 
	C106.931763,165.328049 109.450340,169.440582 112.479462,174.074600 
M187.873535,111.441803 
	C189.276947,110.673134 191.375961,111.373924 192.877304,108.983017 
	C184.113022,109.003639 176.919662,112.138451 169.576859,114.682007 
	C175.832123,115.613884 181.336456,112.936470 187.873535,111.441803 
M153.291061,117.668457 
	C150.029465,119.276482 146.012436,118.979721 142.248260,122.217171 
	C150.051895,120.650414 157.032257,120.055138 163.212082,116.145538 
	C160.168610,116.571014 157.125137,116.996490 153.291061,117.668457 
M324.731445,328.975830 
	C325.404053,330.019501 324.847473,331.752655 326.626312,332.262756 
	C327.973633,331.551636 329.813507,331.436310 330.343964,329.279877 
	C328.853119,327.685638 327.831726,325.510742 325.463928,325.040344 
	C323.924713,326.003418 324.427979,327.217316 324.731445,328.975830 
M382.139221,309.833649 
	C380.295471,310.938965 377.760040,309.255798 376.123993,311.275970 
	C377.592804,313.367737 377.592804,313.367737 384.729645,312.867340 
	C383.725372,311.792297 386.349731,309.115936 382.139221,309.833649 
M445.489197,296.390106 
	C444.760834,295.101105 444.032501,293.812103 442.998383,291.981903 
	C442.095215,294.543701 440.768768,296.218597 440.917664,298.584625 
	C442.992950,298.730255 444.754425,298.967865 445.489197,296.390106 
M339.232269,325.926300 
	C337.505310,325.184845 335.778351,324.443390 333.590118,323.503876 
	C334.086365,329.260742 338.662689,326.578735 340.770660,328.558716 
	C341.221283,327.029449 340.474457,326.628967 339.232269,325.926300 
M365.560791,316.293518 
	C363.467529,313.543610 361.228271,313.993652 358.915436,315.574860 
	C361.385040,314.671844 363.215454,318.212769 365.560791,316.293518 
M120.413231,128.167557 
	C123.479492,127.308540 126.545761,126.449532 129.612030,125.590515 
	C125.509605,124.075729 122.817810,126.379387 120.413231,128.167557 
z"/>
<path fill="#000000" opacity="1.000000" stroke="none" 
	d="
M505.415466,530.338867 
	C519.624817,523.604004 519.948242,523.370789 533.445129,534.494629 
	C540.144836,540.016357 544.997864,547.119202 546.189453,556.226379 
	C546.638794,559.660889 546.133606,562.454163 543.625671,564.871521 
	C539.752808,568.604492 536.801758,572.920471 534.531982,577.857605 
	C532.822144,581.576721 528.519592,582.460022 525.140381,583.866211 
	C520.263672,585.895508 514.988281,586.972717 509.873322,588.422180 
	C503.283386,590.289673 497.600677,587.258057 493.404663,583.274170 
	C482.999481,573.395020 472.451843,575.663513 461.233551,580.930359 
	C456.019348,583.378357 450.706665,586.603821 444.603577,584.392700 
	C435.885468,581.234253 428.365540,576.091736 421.951080,569.395508 
	C421.331726,568.748962 420.674377,567.123047 420.983032,566.761597 
	C423.832489,563.424866 422.896851,557.208740 428.878113,556.266418 
	C429.355591,556.191223 429.799835,555.891113 430.253723,555.682861 
	C439.774963,551.314636 439.945526,550.444153 431.909576,543.889771 
	C429.929718,542.274963 429.306335,541.027466 431.236298,539.076111 
	C431.804230,538.501953 432.547821,537.724365 432.555969,537.032288 
	C432.633484,530.442627 437.930817,529.489868 442.457825,527.723083 
	C444.004791,527.119324 445.707733,526.870605 447.188843,526.150085 
	C456.177795,521.777161 463.000488,524.999268 469.304077,531.752136 
	C472.435822,535.107117 474.749268,540.619934 481.336853,538.297180 
	C482.993988,537.712952 483.777710,539.575623 484.001190,541.197449 
	C484.189575,542.564575 484.579956,544.153442 486.010986,544.378479 
	C492.002197,545.320740 498.017029,545.727478 504.143097,544.202271 
	C500.179779,534.814453 500.204865,534.539856 505.415466,530.338867 
z"/>
<path fill="#000000" opacity="1.000000" stroke="none" 
	d="
M496.963501,518.213074 
	C481.648102,518.035461 466.804871,517.500977 452.137177,520.357483 
	C448.227478,521.118896 444.169067,521.661987 440.533112,523.163147 
	C434.205780,525.775452 427.606445,527.544556 421.260010,530.029053 
	C417.527008,531.490417 414.795135,531.154175 413.069733,527.231812 
	C411.158539,522.887085 413.955383,521.193665 417.230957,519.723511 
	C426.433167,515.593262 436.255371,513.694092 446.058777,511.767639 
	C464.692078,508.106018 483.519714,508.190887 502.268311,510.046265 
	C511.286377,510.938721 520.342102,512.783508 528.912231,516.144470 
	C531.031006,516.975464 533.263184,517.828064 534.170776,520.527649 
	C531.115417,523.087280 527.830933,522.198364 524.640076,521.654724 
	C515.627319,520.119080 506.723511,517.747498 496.963501,518.213074 
z"/>
<path fill="#000000" opacity="1.000000" stroke="none" 
	d="
M386.901978,19.651985 
	C401.671875,11.985194 422.489014,16.502110 433.276123,29.924486 
	C446.178558,45.978939 458.665802,62.367340 471.301422,78.635551 
	C472.703064,80.440208 474.207947,82.261482 474.264130,84.681473 
	C473.368073,85.608215 472.558197,85.106888 471.949890,84.617126 
	C464.414917,78.550262 457.356262,71.904846 452.038208,63.834171 
	C446.044769,54.738506 437.350403,49.727295 427.666504,45.996037 
	C425.580200,45.192177 424.274872,44.276909 423.466156,42.263733 
	C422.198517,39.107964 420.237488,37.103348 416.546692,39.040756 
	C414.234039,40.254734 413.316681,39.100468 412.542664,37.025963 
	C408.514404,26.229271 404.222168,23.396845 392.427826,23.193459 
	C390.124481,23.153742 386.633881,24.484234 386.901978,19.651985 
z"/>
<path fill="#000000" opacity="1.000000" stroke="none" 
	d="
M649.120605,400.133118 
	C646.732239,401.625580 644.444397,402.188324 642.126221,401.492126 
	C637.328552,400.051331 632.800781,399.525146 628.472107,402.976807 
	C626.788696,404.319122 625.325806,403.486420 625.018311,401.231873 
	C624.517273,397.558777 624.472412,393.938354 626.485352,390.620697 
	C626.895691,389.944366 627.473999,388.804657 627.949890,388.817322 
	C636.469360,389.043671 642.266541,382.999420 649.306335,379.428284 
	C649.799805,380.081177 650.469849,380.558502 650.512695,381.086700 
	C651.024780,387.396637 651.693298,393.729248 649.120605,400.133118 
z"/>
<path fill="#000000" opacity="1.000000" stroke="none" 
	d="
M616.787720,316.376434 
	C619.588074,314.039062 622.860291,313.904297 625.839172,312.932434 
	C634.002869,310.269073 642.715393,308.270386 644.472412,296.254944 
	C649.162903,306.193420 641.718018,312.836334 642.103210,320.434967 
	C637.548462,321.729370 633.245605,322.904388 628.972107,324.177795 
	C622.234741,326.185333 618.792175,324.123749 616.787720,316.376434 
z"/>
<path fill="#000000" opacity="1.000000" stroke="none" 
	d="
M692.040039,508.153198 
	C680.296387,514.384644 668.484009,514.429504 656.455139,510.578339 
	C654.576782,509.976898 652.301331,509.037476 652.744080,506.587738 
	C653.178040,504.186066 655.571594,503.966675 657.589905,504.045563 
	C666.217285,504.382812 674.877869,503.208008 683.482117,504.654175 
	C685.809692,505.045349 688.088623,504.858215 690.302551,503.808014 
	C691.916260,503.042572 694.081482,501.910767 695.162048,504.049744 
	C696.311279,506.324402 693.736328,506.950775 692.040039,508.153198 
z"/>
<path fill="#000000" opacity="1.000000" stroke="none" 
	d="
M672.753357,342.461792 
	C669.627380,336.047485 666.607788,330.020874 663.155334,323.130402 
	C668.031311,324.155029 670.054688,327.260071 671.739929,330.499146 
	C675.835083,338.369965 678.596680,346.700562 679.017029,355.620575 
	C679.345337,362.586578 679.324829,369.569611 679.417969,376.545654 
	C679.440735,378.247009 679.331238,380.155121 677.109497,380.308258 
	C674.979309,380.455048 674.143677,378.618378 674.139404,376.974487 
	C674.118591,368.865662 671.763489,360.811523 673.473145,352.676727 
	C674.179810,349.313721 673.877930,346.074249 672.753357,342.461792 
z"/>
<path fill="#000000" opacity="1.000000" stroke="none" 
	d="
M397.244629,566.758301 
	C404.242432,571.230652 409.584839,577.160645 416.367157,581.565979 
	C423.288452,586.061523 430.686432,588.289490 438.150330,590.890564 
	C440.246399,591.620972 442.605164,591.825378 444.157196,593.644836 
	C443.048615,595.544250 441.605347,595.256470 440.394836,594.901611 
	C425.547882,590.548462 410.524353,586.573853 398.135895,576.560608 
	C395.894531,574.749023 393.863098,572.754517 393.968994,569.542969 
	C394.030396,567.681213 394.514191,566.170715 397.244629,566.758301 
z"/>
<path fill="#000000" opacity="1.000000" stroke="none" 
	d="
M466.461365,381.310852 
	C470.134674,380.223999 472.492645,382.544250 474.631348,384.695953 
	C477.950043,388.034882 481.369415,388.403015 485.480804,386.428864 
	C488.471313,384.992950 491.599823,383.783722 494.936951,383.342468 
	C496.440735,383.143646 498.172394,382.953766 498.561127,384.941528 
	C498.907349,386.712067 497.544952,387.629822 496.087219,388.213379 
	C495.488495,388.453064 494.762695,388.636993 494.147949,388.532623 
	C490.154755,387.854431 486.926941,387.726593 484.852234,392.588531 
	C483.395752,396.001740 481.502045,398.808289 482.638550,402.807770 
	C483.625000,406.279205 483.575043,409.940979 481.399902,413.544952 
	C480.918884,410.935516 480.434448,408.326721 479.957733,405.716522 
	C479.447632,402.923279 479.362061,399.317902 477.241943,397.851257 
	C471.343811,393.771118 471.624512,385.895996 466.461365,381.310852 
z"/>
<path fill="#000000" opacity="1.000000" stroke="none" 
	d="
M606.461853,302.147949 
	C606.123230,300.472168 607.353271,301.163696 607.922729,301.140533 
	C610.790466,301.024048 613.989258,301.284180 614.659424,297.537842 
	C615.361633,293.611908 613.225037,290.664703 610.006287,288.880890 
	C607.881714,287.703491 605.301514,287.057678 602.860229,286.806549 
	C598.585266,286.366821 596.338379,290.149994 598.360718,294.134369 
	C599.150208,295.689575 600.251892,297.086273 601.335327,298.744995 
	C596.439758,298.846100 593.928589,296.208374 593.000244,290.115479 
	C592.468994,286.629486 593.583618,283.986633 597.279663,282.687195 
	C604.530151,280.138062 617.440186,285.519257 620.460693,292.499237 
	C622.537476,297.298340 619.352478,302.693542 614.090881,303.062714 
	C611.612976,303.236603 609.083435,303.240906 606.461853,302.147949 
z"/>
<path fill="#000000" opacity="1.000000" stroke="none" 
	d="
M532.338989,464.519592 
	C536.075317,466.885895 538.314880,469.640167 536.196838,473.791931 
	C534.682495,476.760406 532.864075,479.863403 528.552979,477.737000 
	C529.027771,468.741669 526.613037,466.288971 517.174683,466.249084 
	C515.189392,466.240692 513.187805,466.289825 511.222260,466.538147 
	C509.442413,466.762939 507.667419,466.982330 507.401337,464.685089 
	C507.136139,462.395477 508.953491,461.305725 510.797974,461.131927 
	C518.110657,460.442902 525.388184,460.368805 532.338989,464.519592 
z"/>
<path fill="#000000" opacity="1.000000" stroke="none" 
	d="
M70.577225,106.275192 
	C77.584465,110.910652 79.873108,116.523254 77.056831,121.758217 
	C76.769501,122.292328 76.207527,122.678696 75.178017,123.756523 
	C72.105530,106.297089 59.705952,105.923363 46.015877,107.951057 
	C49.869244,100.570343 59.064014,100.181831 70.577225,106.275192 
z"/>
<path fill="#000000" opacity="1.000000" stroke="none" 
	d="
M430.884460,367.894073 
	C427.355164,369.074341 424.232849,370.218750 421.051788,371.165680 
	C418.744385,371.852539 416.317810,372.770752 413.309570,370.221802 
	C423.127625,365.825317 432.470886,362.567596 442.775299,362.806366 
	C439.443115,365.777679 435.268616,366.567505 430.884460,367.894073 
z"/>
<path fill="#000000" opacity="1.000000" stroke="none" 
	d="
M693.713623,471.663391 
	C689.267578,470.355804 687.225525,466.654144 688.544495,463.169281 
	C689.413208,460.874084 691.014404,460.701080 692.907166,461.639374 
	C695.805969,463.076385 696.330139,467.854919 693.713623,471.663391 
z"/>
<path fill="#000000" opacity="1.000000" stroke="none" 
	d="
M490.364716,102.660721 
	C491.862579,105.158684 494.571106,106.548836 494.579041,109.587433 
	C490.118317,108.796272 483.402344,101.503380 482.766724,96.599899 
	C486.893036,96.535912 487.877594,100.305122 490.364716,102.660721 
z"/>
<path fill="#000000" opacity="1.000000" stroke="none" 
	d="
M502.159851,471.658142 
	C502.972015,470.346771 504.177368,469.106750 504.801300,470.729980 
	C505.844025,473.442749 508.041504,475.026672 510.258881,477.277252 
	C507.478210,478.671539 505.180115,478.534698 503.008270,477.187256 
	C500.896759,475.877258 501.243591,473.907593 502.159851,471.658142 
z"/>
<path fill="#000000" opacity="1.000000" stroke="none" 
	d="
M709.857788,441.912170 
	C711.786865,442.122070 713.603943,441.408936 714.664612,443.236450 
	C710.728088,446.004211 707.289490,446.310150 702.097290,444.198608 
	C704.308960,442.130463 706.895264,442.059723 709.857788,441.912170 
z"/>
<path fill="#000000" opacity="1.000000" stroke="none" 
	d="
M655.633423,319.553040 
	C653.016418,322.484558 650.151611,320.830048 647.265320,319.708344 
	C649.851135,317.803619 652.571228,317.508118 655.633423,319.553040 
z"/>
<path fill="#000000" opacity="1.000000" stroke="none" 
	d="
M680.534363,711.544739 
	C696.121094,704.641113 711.461060,698.192017 727.976379,695.033386 
	C709.465088,702.487061 691.814575,712.153381 672.140320,716.611328 
	C673.659241,712.798645 677.431519,713.154663 680.534363,711.544739 
z"/>
<path fill="#000000" opacity="1.000000" stroke="none" 
	d="
M747.065125,689.251648 
	C743.131775,690.205566 739.684570,691.330383 736.503418,693.194763 
	C734.714539,694.243103 732.872803,694.573608 729.744080,692.613708 
	C742.042725,686.350464 754.273743,682.900391 766.254272,678.792847 
	C766.470276,679.285767 766.686279,679.778687 766.902283,680.271606 
	C760.414856,683.228577 753.927368,686.185486 747.065125,689.251648 
z"/>
</svg>